<?xml version="1.0" encoding="UTF-8" standalone="no"?>
<svg
   xmlns:dc="http://purl.org/dc/elements/1.1/"
   xmlns:cc="http://creativecommons.org/ns#"
   xmlns:rdf="http://www.w3.org/1999/02/22-rdf-syntax-ns#"
   xmlns:svg="http://www.w3.org/2000/svg"
   xmlns="http://www.w3.org/2000/svg"
   xmlns:sodipodi="http://sodipodi.sourceforge.net/DTD/sodipodi-0.dtd"
   xmlns:inkscape="http://www.inkscape.org/namespaces/inkscape"
   viewBox="0 0 2411.2005 646.40002"
   version="1.1"
   id="svg35"
   sodipodi:docname="logo.svg"
   width="2411.2004"
   height="646.40002"
   inkscape:version="1.0.1 (c497b03c, 2020-09-10)">
  <metadata
     id="metadata39">
    <rdf:RDF>
      <cc:Work
         rdf:about="">
        <dc:format>image/svg+xml</dc:format>
        <dc:type
           rdf:resource="http://purl.org/dc/dcmitype/StillImage" />
        <dc:title></dc:title>
      </cc:Work>
    </rdf:RDF>
  </metadata>
  <sodipodi:namedview
     pagecolor="#ffffff"
     bordercolor="#666666"
     borderopacity="1"
     objecttolerance="10"
     gridtolerance="10"
     guidetolerance="10"
     inkscape:pageopacity="0"
     inkscape:pageshadow="2"
     inkscape:window-width="2560"
     inkscape:window-height="1320"
     id="namedview37"
     showgrid="false"
     inkscape:zoom="0.18109884"
     inkscape:cx="1205.56"
     inkscape:cy="323.18"
     inkscape:window-x="2560"
     inkscape:window-y="25"
     inkscape:window-maximized="1"
     inkscape:current-layer="svg35" />
  <defs
     id="defs12">
    <style
       id="style10">.cls-1{fill:#59487c;}.cls-2{fill:#aca3bd;}.cls-3{fill:#fff;}.cls-4{fill:#fff;}</style>
  </defs>
  <g
     id="Layer_3"
     data-name="Layer 3"
     transform="translate(-738.13,-652.32)">
    <path
       class="cls-1"
       d="M 1297.89,652.32 H 824.5 a 86.6,86.6 0 0 0 -86.37,80.2 v 486 a 86.59,86.59 0 0 0 86.37,80.2 h 473.39 a 86.58,86.58 0 0 0 86.6,-86.6 V 738.9 a 86.58,86.58 0 0 0 -86.6,-86.58 z"
       id="path14" />
    <path
       class="cls-4"
       d="m 1534.27,953.69 a 11.51,11.51 0 0 1 11.52,-11.52 h 23 c 5.45,0 9.09,3 10.91,7.88 l 8.48,23.63 c 8.49,-12.12 30.91,-37.57 68.49,-37.57 28.48,0 53.94,9.09 46.67,24.24 l -22.43,39.4 c -3,5.45 -9.09,7.87 -13.94,5.45 -1.82,-0.61 -10.91,-3.64 -17.57,-3.64 -24.25,0 -38.79,16.36 -43,24.85 v 146.67 c 0,8.48 -5.46,11.51 -13.94,11.51 h -46.67 a 11.92,11.92 0 0 1 -11.52,-11.51 z"
       id="path16" />
    <path
       class="cls-4"
       d="m 1725.4,953.69 a 11.51,11.51 0 0 1 11.51,-11.52 h 49.7 a 11.51,11.51 0 0 1 11.52,11.52 v 119.39 c 0,32.12 16.36,52.12 44.24,52.12 25.45,0 44.84,-23.64 48.48,-45.45 V 953.69 c 0,-9.1 3.64,-11.52 13.33,-11.52 h 46.07 a 11.51,11.51 0 0 1 11.51,11.52 v 219.39 a 11.91,11.91 0 0 1 -11.51,11.51 h -22.43 c -6.06,0 -9.7,-4.24 -11.51,-9.09 l -7.28,-20 c -10.91,9.7 -33.33,35.15 -81.21,35.15 -75.15,0 -102.42,-57.57 -102.42,-119.39 z"
       id="path18" />
    <path
       class="cls-4"
       d="m 2010.25,771.87 a 11.92,11.92 0 0 1 11.52,-11.52 h 50.91 a 11.91,11.91 0 0 1 11.51,11.52 v 401.21 a 11.91,11.91 0 0 1 -11.51,11.51 h -50.91 a 11.92,11.92 0 0 1 -11.52,-11.51 z"
       id="path20" />
    <path
       class="cls-4"
       d="m 2238.13,936.11 c 62.43,0 113.34,47.27 113.34,112.73 a 150,150 0 0 1 -1.21,16.36 11.73,11.73 0 0 1 -11.52,10.3 h -155.15 c 1.82,24.85 23,52.73 58.18,52.73 a 84.2,84.2 0 0 0 47.27,-15.16 c 6.06,-3.63 11.52,-4.84 15.76,0 l 24.85,28.49 c 4.24,4.25 5.45,10.91 -0.61,15.76 -20,18.78 -50.91,33.33 -90.3,33.33 -72.73,0 -124.24,-57.57 -124.24,-127.27 0,-68.48 51.5,-127.27 123.63,-127.27 z m 42.43,97 c -1.82,-22.43 -21.22,-41.22 -44.24,-41.22 a 47.77,47.77 0 0 0 -47.28,41.22 z"
       id="path22" />
    <path
       class="cls-4"
       d="m 2378.14,771.87 a 11.92,11.92 0 0 1 11.52,-11.52 h 51.51 a 11.92,11.92 0 0 1 11.52,11.52 V 947 c 10.9,-4.25 29.69,-10.91 53.93,-10.91 72.13,0 120,56.36 120,127.27 0,69.7 -50.3,127.27 -116.36,127.27 -50.91,0 -79.39,-36.36 -79.39,-36.36 l -6.07,18.79 c -1.81,6.66 -6.05,11.51 -11.51,11.51 h -23.63 a 11.91,11.91 0 0 1 -11.52,-11.51 z m 123,353.33 c 32.12,0 55.15,-27.88 55.15,-61.82 0,-33.94 -24.85,-61.82 -58.79,-61.82 -30.3,0 -47.27,13.94 -47.27,13.94 v 70.3 c 4.27,14.55 18.82,39.4 50.94,39.4 z"
       id="path24" />
    <path
       class="cls-4"
       d="m 2775,936.11 c 68.48,0 124.24,58.18 124.24,126.67 0,69.69 -55.76,127.87 -124.24,127.87 -68.48,0 -124.25,-58.18 -124.25,-127.87 0.03,-68.49 55.79,-126.67 124.25,-126.67 z m 0,189.09 c 32.12,0 58.18,-27.88 58.18,-62.42 0,-33.94 -26.06,-61.22 -58.18,-61.22 -32.73,0 -58.19,27.28 -58.19,61.22 0.03,34.54 25.49,62.42 58.19,62.42 z"
       id="path26" />
    <path
       class="cls-4"
       d="m 2904.13,1167 78.79,-106 -76.36,-101.22 c -6.07,-7.87 -1.22,-17.57 9.08,-17.57 H 2966 c 7.88,0 14.54,0.6 20,8.49 l 39.39,57 h 0.61 l 40,-57 c 4.85,-6.67 9.69,-8.49 18.18,-8.49 h 54.54 c 10.31,0 13.34,9.7 7.28,17.57 l -76.36,100.61 77,106.67 c 5.45,7.88 2.42,17.57 -7.28,17.57 H 3086 c -7.88,0 -12.73,-3.64 -17,-9.69 l -43,-60.61 h -0.61 l -46.06,65.45 c -1.81,2.43 -6.66,4.85 -9.69,4.85 h -58.24 c -10.3,-0.04 -12.73,-9.73 -7.27,-17.63 z"
       id="path28" />
    <path
       class="cls-2"
       d="m 1061.2,849.75 a 205.91,205.91 0 0 0 -43.08,-41.27 203.73,203.73 0 0 0 -118.35,-37.81 v -0.23 h -43.3 v 86.37 h 43.08 a 118.56,118.56 0 0 1 118.57,118.58 203.81,203.81 0 0 1 43.08,-125.64 z"
       id="path30" />
    <path
       class="cls-3"
       d="m 1222.84,770.44 v 0.22 a 204.69,204.69 0 0 0 -204.72,204.73 v 204.72 h 86.15 V 975.39 a 118.56,118.56 0 0 1 118.57,-118.58 h 43.3 v -86.37 z"
       id="path32" />
  </g>
</svg>
